<?xml version="1.0" encoding="UTF-8" standalone="no"?>
<svg width="456" height="456" viewBox="0 0 256 256" version="1.1" xmlns="http://www.w3.org/2000/svg">
    <path xmlns="http://www.w3.org/2000/svg" d="M0 0 C1.43687018 -0.00299829 2.87373956 -0.00640234 4.31060791 -0.01017761 C8.18686955 -0.0189539 12.06310907 -0.02135303 15.93937969 -0.0219934 C18.36877099 -0.02270755 20.79815677 -0.02484875 23.22754669 -0.02749062 C31.72461805 -0.03672311 40.22167379 -0.04082815 48.71875 -0.04003906 C56.60420157 -0.03943891 64.48958459 -0.04998394 72.37501884 -0.06578273 C79.17453699 -0.07891404 85.9740329 -0.08422062 92.77356362 -0.08358365 C96.82153761 -0.0833303 100.8694506 -0.08609085 104.9174118 -0.0967617 C108.72930882 -0.10653736 112.54108769 -0.106458 116.3529892 -0.09924507 C118.39463381 -0.09772315 120.43627866 -0.10597936 122.47790527 -0.11468506 C141.52656951 -0.05077006 156.87334905 2.97586778 170.87988281 16.43041992 C183.30143111 29.34310028 185.6543937 44.65518974 185.64624023 61.87475586 C185.64959885 62.90857391 185.65295746 63.94239197 185.65641785 65.00753784 C185.66586425 68.40241724 185.6678678 71.79724698 185.66894531 75.19213867 C185.67216237 77.56951924 185.67552678 79.94689962 185.67903137 82.32427979 C185.68500694 87.3004197 185.6868729 92.2765423 185.6862793 97.25268555 C185.68617779 103.60167356 185.6998256 109.95054947 185.71705151 116.29951096 C185.7282178 121.20856223 185.73019708 126.1175868 185.72966957 131.02664948 C185.73084288 133.36600378 185.73522784 135.70535894 185.74300194 138.04470062 C185.80666289 159.18004246 185.54032177 178.53983789 170.50097656 195.14526367 C157.37761273 206.94724052 143.79237883 210.46722269 126.50878906 210.40063477 C124.77505035 210.40606544 124.77505035 210.40606544 123.00628662 210.41160583 C120.51280503 210.41846493 118.01930853 210.42101186 115.52581787 210.41965866 C111.57361461 210.41868832 107.62158662 210.43127368 103.66943359 210.44863892 C92.43817733 210.49542 81.20693549 210.51960205 69.97558594 210.52612305 C63.75666592 210.52988592 57.53794672 210.54800659 51.31911278 210.58121741 C48.03798791 210.59803017 44.75730754 210.60494425 41.47613525 210.59827805 C37.81483834 210.59118595 34.15438165 210.60853393 30.49316406 210.63110352 C29.42273865 210.62293106 28.35231323 210.61475861 27.24945068 210.6063385 C18.20645177 210.70512643 10.22191596 212.77150068 3.56347656 219.19213867 C2.73847656 219.97911133 1.91347656 220.76608398 1.06347656 221.5769043 C-3.9717879 226.62368232 -8.98211382 231.69623277 -13.89453125 236.86303711 C-20.71861156 244.02186558 -27.52308262 250.29506242 -37.56152344 252.08276367 C-46.16227184 252.21928349 -53.06584863 250.0352999 -59.49902344 244.14526367 C-65.3101461 236.64075307 -66.62046467 230.18535921 -66.63273621 220.79161072 C-66.63500176 220.07286776 -66.63726732 219.3541248 -66.63960153 218.61360174 C-66.64590768 216.2165057 -66.64511433 213.81946668 -66.64428711 211.42236328 C-66.64728083 209.69875007 -66.65068385 207.97513754 -66.65446472 206.25152588 C-66.66329008 201.57553401 -66.6656423 196.89956044 -66.66628051 192.22356105 C-66.66699216 189.2977007 -66.66912874 186.37184499 -66.67177773 183.44598579 C-66.68102829 173.22538076 -66.68511322 163.00478876 -66.68432617 152.78417969 C-66.68372637 143.27989042 -66.69425983 133.7756581 -66.71006984 124.27138323 C-66.72318223 116.09532784 -66.72850848 107.91929097 -66.72787076 99.74322516 C-66.72761674 94.8674768 -66.73041446 89.991779 -66.74104881 85.11604118 C-66.75079148 80.52364884 -66.75076704 75.93135472 -66.74353218 71.33895874 C-66.74249377 69.66251544 -66.74480454 67.98606582 -66.75089264 66.30963326 C-66.81825817 46.45809586 -64.65998412 29.86858092 -50.47167969 15.02416992 C-35.98649252 1.16763464 -18.99308174 -0.00797618 0 0 Z " fill="#5e7ed3" transform="translate(68.4990234375,1.854736328125)" />
</svg>